<?xml version="1.0" encoding="UTF-8" standalone="no"?>
<!-- Created with Inkscape (http://www.inkscape.org/) -->

<svg
   version="1.1"
   id="svg1"
   width="1066.6667"
   height="800"
   viewBox="0 0 1066.6667 800"
   sodipodi:docname="gilfoyle.svg"
   inkscape:version="1.3 (0e150ed6c4, 2023-07-21)"
   xmlns:inkscape="http://www.inkscape.org/namespaces/inkscape"
   xmlns:sodipodi="http://sodipodi.sourceforge.net/DTD/sodipodi-0.dtd"
   xmlns="http://www.w3.org/2000/svg"
   xmlns:svg="http://www.w3.org/2000/svg">
  <defs
     id="defs1" />
  <sodipodi:namedview
     id="namedview1"
     pagecolor="#ffffff"
     bordercolor="#666666"
     borderopacity="1.0"
     inkscape:showpageshadow="2"
     inkscape:pageopacity="0.0"
     inkscape:pagecheckerboard="0"
     inkscape:deskcolor="#d1d1d1"
     inkscape:zoom="0.59906245"
     inkscape:cx="533.33337"
     inkscape:cy="399.79137"
     inkscape:window-width="1499"
     inkscape:window-height="749"
     inkscape:window-x="50"
     inkscape:window-y="118"
     inkscape:window-maximized="0"
     inkscape:current-layer="g1" />
  <g
     inkscape:groupmode="layer"
     inkscape:label="Image"
     id="g1">
    <path
       style="fill:#000000"
       d="m 525.84101,763.17197 c -38.84798,-2.09024 -64.7178,-4.94902 -71.88526,-7.94378 -13.91111,-5.81243 -21.90804,-14.6593 -28.69522,-31.74502 -7.28982,-18.35107 -10.08827,-22.66868 -21.16432,-32.65359 -5.82578,-5.25187 -11.35187,-11.38256 -12.28021,-13.62376 l -1.68789,-4.07492 -3.47689,3.24875 c -7.2753,6.79794 -11.73229,8.09293 -27.47689,7.98346 -12.20677,-0.0849 -16.45569,-0.70313 -25.33334,-3.68626 -18.64678,-6.26583 -34.25979,-20.05198 -38.05318,-33.60063 -0.91362,-3.26311 -1.69638,-14.95014 -1.79489,-26.79841 -0.19303,-23.21699 -0.39023,-23.9274 -10.2776,-37.02312 -2.77963,-3.68159 -7.03847,-10.88511 -9.4641,-16.00782 -4.38145,-9.25325 -4.41023,-9.44454 -4.41023,-29.31403 0,-16.05207 0.60964,-22.72242 3.08841,-33.79163 5.1523,-23.00811 15.42473,-49.40399 26.43259,-67.92074 1.86774,-3.14181 3.09069,-6.50773 2.71766,-7.47983 -0.37335,-0.97294 -3.86733,-2.19051 -7.77253,-2.70855 -8.82172,-1.17024 -18.91476,-6.10845 -25.46613,-12.45978 -8.53852,-8.2778 -6.3671,-12.61138 8.4184,-16.80092 15.84816,-4.49064 23.67448,-14.54952 21.85648,-28.09134 -0.4982,-3.71096 -4.20659,-15.14721 -8.24087,-25.41388 -10.76291,-27.39009 -13.87286,-40.67159 -13.89329,-59.33333 -0.0352,-32.11619 11.72224,-60.37384 43.27216,-104 56.80919,-78.55383 76.25611,-99.613398 105.58713,-114.34306 17.89915,-8.988723 39.79352,-12.835653 55.87059,-9.816692 5.21971,0.98016 9.48594,1.050447 12.66666,0.208685 33.54223,-8.876765 51.53092,-10.881536 82.12943,-9.153008 20.19122,1.140614 34.73372,4.524638 46.66071,10.857898 l 8.40904,4.465219 10.46513,-1.873235 c 11.92874,-2.135218 29.03863,-1.452272 40.46513,1.615178 15.5506,4.174572 26.4877,10.889589 40,24.558697 20.3465,20.582638 27.541,35.316208 44.0193,90.146988 11.897,39.58656 17.0142,53.44388 25.4954,69.04166 6.4828,11.92245 21.9729,29.30702 31.6418,35.5115 8.0169,5.14445 9.2237,8.52118 4.6721,13.07282 -3.0393,3.03924 -4.1401,3.28634 -12.5293,2.8123 -7.7761,-0.43939 -10.1549,-1.19467 -15.3947,-4.88808 -3.4087,-2.40261 -6.4871,-4.07879 -6.8411,-3.72483 -0.3539,0.35395 0.2821,3.83805 1.4133,7.74242 1.1313,3.90438 5.3357,21.19887 9.3432,38.43221 12.6613,54.44753 17.0489,87.39906 17.2209,129.33333 0.1654,40.32724 -4.3251,71.85113 -14.6249,102.66667 -9.4005,28.12521 -25.929,57.73889 -41.641,74.60686 -3.7262,4.00044 -6.775,7.3685 -6.775,7.48458 0,0.11608 3.75,1.92521 8.3333,4.0203 6.4436,2.94542 10.7522,3.91058 19,4.25613 9.4998,0.398 11.3231,0.0693 16.6667,-3.00433 15.0046,-8.63068 21.2127,-10.15081 25.1944,-6.1691 5.6647,5.66466 2.6911,20.35776 -7.5465,37.28892 -13.5754,22.45131 -33.0817,32.34269 -59.8278,30.33775 -24.182,-1.81273 -46.2955,-12.50975 -67.6088,-32.70455 l -6.4553,-6.11656 -3.8548,4.66666 c -2.1202,2.56667 -7.5359,9.16667 -12.035,14.66667 -15.6072,19.07942 -41.65972,46.78675 -49.74188,52.90144 -20.25334,15.32297 -35.00637,17.55445 -94.791,14.33769 z m 63.02555,-14.58265 c 14.59266,-3.44052 21.07783,-7.69002 38.34717,-25.12755 20.32311,-20.52104 36.5106,-40.55813 38.12103,-47.18673 0.6693,-2.75488 1.59883,-15.94247 2.06561,-29.30575 0.76322,-21.85051 0.62682,-24.38205 -1.35532,-25.14266 -2.75174,-1.05593 -2.89262,-5.71325 -0.20403,-6.74495 3.07957,-1.18175 2.56527,-8.02333 -0.66667,-8.86851 -1.46666,-0.38354 -2.66666,-1.63241 -2.66666,-2.77526 0,-1.14285 1.2,-2.72013 2.66666,-3.50507 3.53824,-1.8936 3.38294,-6.29777 -0.33333,-9.45294 l -3,-2.54706 3,-2.54706 c 3.79117,-3.21877 4.04547,-8.8067 0.41332,-9.08031 -1.87557,-0.14128 -2.70031,0.78699 -3,3.3766 -0.32201,2.78244 -1.28386,3.72074 -4.35387,4.24724 -2.82795,0.48498 -4.16045,1.61615 -4.71939,4.00633 -0.55682,2.38108 -1.8091,3.45081 -4.39279,3.75243 -2.8241,0.32969 -3.61394,1.13105 -3.61394,3.66667 0,3.16072 -0.52157,3.4926 -5.93336,3.77551 -1.60363,0.0838 -2.91684,1.41335 -3.42671,3.46926 -0.68942,2.77986 -1.52518,3.27789 -5.03342,2.99943 -4.0075,-0.31809 -4.16904,-0.14541 -3.41073,3.64613 0.97366,4.86829 -2.846,7.2493 -5.59607,3.48835 -1.56258,-2.13696 -2.27882,-2.00042 -10.14052,1.93308 -4.65256,2.32785 -9.4341,5.0901 -10.62565,6.13835 -1.19155,1.04825 -2.69155,1.80982 -3.33333,1.69239 -2.93854,-0.53771 -4.03733,0.32758 -3.93941,3.10227 0.13033,3.69325 -5.43169,5.08988 -6.73582,1.69137 -0.63191,-1.64672 -1.82272,-1.95024 -4.99404,-1.27289 -2.29035,0.4892 -4.98929,1.55588 -5.99764,2.37041 -1.00834,0.81454 -3.48226,1.30802 -5.49759,1.09662 -3.2768,-0.34372 -3.59552,-0.0249 -3.01437,3.01515 0.44675,2.33703 -0.0281,3.65967 -1.51939,4.23192 -2.8489,1.09323 -6.38315,-1.91784 -5.50364,-4.68893 0.57934,-1.82533 -0.18867,-2.09588 -4.72233,-1.66353 -3.7916,0.36159 -5.21245,1.04208 -4.74101,2.27062 0.88988,2.319 -2.59611,5.1208 -5.15133,4.14027 -1.10934,-0.42569 -2.01698,-1.9298 -2.01698,-3.34245 0,-2.01808 -1.13017,-2.67625 -5.27408,-3.07143 -4.80316,-0.45806 -5.30914,-0.20269 -5.66667,2.85995 -0.55303,4.73732 -5.72592,4.76404 -5.72592,0.0296 0,-3.02419 -0.78674,-3.49449 -8.48316,-5.07106 -7.3449,-1.50456 -8.78022,-1.46888 -10.69712,0.26588 -2.3579,2.13388 -4.54457,1.41948 -5.75432,-1.87998 -0.40704,-1.11018 -5.01952,-3.39679 -10.24995,-5.08136 -8.73136,-2.81213 -9.68514,-2.8876 -11.65076,-0.92198 -2.87315,2.87315 -5.0732,1.92237 -5.58659,-2.41432 -0.32119,-2.71318 -1.15743,-3.56384 -3.50341,-3.56384 -1.69483,0 -3.86907,-0.94896 -4.83166,-2.1088 -1.37168,-1.65278 -12.19067,-7.94216 -18.9097,-10.99274 -0.55,-0.24971 -1,0.83771 -1,2.41649 0,2.21088 -0.68626,2.77261 -2.98638,2.44445 -3.3068,-0.47179 -4.87725,-4.86226 -2.30733,-6.45056 0.89944,-0.55589 1.19891,-1.71687 0.66549,-2.57996 -0.70615,-1.14258 -1.65213,-0.95181 -3.47914,0.70161 -2.09825,1.89889 -2.85504,1.98393 -4.62001,0.51913 -1.34898,-1.11956 -1.82923,-2.87332 -1.33073,-4.85951 0.7088,-2.82407 0.38192,-3.07652 -3.58095,-2.7656 -3.86677,0.30338 -4.40876,-0.0734 -4.78285,-3.32451 -0.35334,-3.07088 -1.05748,-3.66669 -4.33333,-3.66669 -2.15824,0 -3.98038,-0.74704 -4.06524,-1.66667 -0.0846,-0.91666 -0.23459,-2.51501 -0.33333,-3.55188 -0.32489,-3.41148 -3.44321,-3.05981 -5.09938,0.57509 -1.38736,3.04492 -1.29274,3.75182 0.64753,4.83765 3.04804,1.70577 2.87117,5.36708 -0.39435,8.16311 -1.46667,1.25579 -2.66667,3.04481 -2.66667,3.97559 0,0.93077 1.2,2.44173 2.66667,3.35768 3.37411,2.10717 3.44712,5.68832 0.13363,6.55482 -1.54372,0.40369 -2.75189,2.15362 -3.09341,4.48054 -0.45031,3.06816 -0.0182,3.89566 2.1997,4.21278 3.85307,0.5509 3.93919,7.06129 0.0934,7.06129 -3.38336,0 -4.25825,4.06141 -5.4711,25.3978 -1.17732,20.71125 -0.26666,23.49891 10.87071,33.27698 8.79939,7.72543 11.50107,12.25012 24.27705,40.65855 8.2061,18.24694 14.50479,22.23949 38.10501,24.15362 65.63305,5.32326 98.17629,6.25048 111.24389,3.16953 z m -46.06221,-18.73209 c -4.10359,-2.87426 -3.84506,-8.97029 0.63802,-15.04469 1.98075,-2.68383 8.42938,-9.1266 14.33029,-14.31726 12.22902,-10.75709 14.55274,-15.29974 15.80419,-30.89577 0.60659,-7.55949 0.38771,-9.66667 -1.0041,-9.66667 -0.97887,0 -2.15431,-0.97605 -2.61209,-2.169 -1.00018,-2.60643 1.65339,-6.2034 3.9315,-5.32921 2.13308,0.81855 4.61552,-1.74614 4.61552,-4.76846 0,-4.43618 4.89732,-2.71995 7.72634,2.70765 2.40499,4.61407 2.5412,6.25685 1.40956,17 -2.78365,26.42639 -4.58523,30.2464 -20.3337,43.11494 -5.45051,4.45377 -11.25279,10.35069 -12.89396,13.10426 -2.85686,4.79328 -6.20208,8.33982 -7.86641,8.33982 -0.43,0 -2.11532,-0.93402 -3.74516,-2.07561 z m -6.02836,-70.76719 c -1.72426,-1.72426 -0.95737,-5.52997 1.28798,-6.39159 2.81015,-1.07836 4.83606,0.87906 4.2201,4.07745 -0.48958,2.54221 -3.86281,3.95942 -5.50808,2.31414 z m 17.33334,0 c -1.72427,-1.72426 -0.95737,-5.52997 1.28797,-6.39159 2.81016,-1.07836 4.83606,0.87906 4.22011,4.07745 -0.48959,2.54221 -3.86281,3.95942 -5.50808,2.31414 z m -77.93499,-6.76151 c -0.91667,-0.33985 -1.66667,-2.06791 -1.66667,-3.84013 0,-2.34993 0.73323,-3.22223 2.70851,-3.22223 1.48969,0 3.07173,0.94653 3.51566,2.10339 0.94911,2.47332 -2.1542,5.84999 -4.5575,4.95897 z m 18.32417,-1.07339 c -0.89238,-1.07526 -1.27421,-2.86265 -0.84852,-3.97199 1.01947,-2.65669 5.68478,-2.59272 6.71503,0.0921 1.12528,2.93242 1.11133,2.96883 -1.71734,4.48269 -1.8728,1.00229 -2.94654,0.8463 -4.14917,-0.60277 z m 16.77107,-0.0842 c -1.09006,-1.09007 -1.63106,-2.8963 -1.20222,-4.01385 1.15261,-3.00364 6.36081,-1.78148 6.84414,1.60605 0.50816,3.5615 -2.99372,5.056 -5.64192,2.4078 z m 16.58552,0.11221 c -2.21546,-2.66946 -0.73971,-6.01698 2.65258,-6.01698 1.51269,0 3.09865,0.90764 3.52434,2.01698 0.76617,1.99659 -1.58207,5.98302 -3.52434,5.98302 -0.55375,0 -1.74741,-0.89236 -2.65258,-1.98302 z m 17.40047,0.69989 c -2.60361,-1.60912 -1.06719,-6.00076 2.26573,-6.47627 2.39982,-0.34238 2.98638,0.21883 2.98638,2.85735 0,3.53879 -2.5447,5.29219 -5.25211,3.61892 z m 50.59954,-0.69989 c -2.21546,-2.66946 -0.73972,-6.01698 2.65257,-6.01698 1.5127,0 3.09865,0.90764 3.52435,2.01698 0.76616,1.99659 -1.58208,5.98302 -3.52435,5.98302 -0.55375,0 -1.74741,-0.89236 -2.65257,-1.98302 z m 17.52138,0.80158 c -2.74224,-1.73592 -1.25926,-6.09245 2.24357,-6.5909 2.66403,-0.37909 3.02616,0.0619 2.65305,3.23051 -0.47185,4.00711 -2.10475,5.12772 -4.89662,3.36039 z m -51.96155,-3.15189 c 0.27381,-1.92794 1.49813,-3.15226 3.42607,-3.42607 2.44331,-0.347 3,0.20969 3,3 0,2.79031 -0.63575,3.42607 -3.42607,3.42607 -2.79031,0 -3.347,-0.55669 -3,-3 z m -110.76702,-5.49767 c -2.06188,-2.48442 -0.44273,-6.169 2.71091,-6.169 3.23516,0 4.63316,3.40823 2.46808,6.01698 -2.04315,2.46185 -3.23301,2.49678 -5.17899,0.15202 z m 16.74864,0.94211 c -1.63176,-1.63176 -0.91433,-5.8517 1.12809,-6.63545 3.2306,-1.2397 6.18537,1.98823 4.57476,4.99768 -1.35534,2.53248 -4.03779,3.30284 -5.70285,1.63777 z m 16.43637,-1.12084 c -1.47535,-1.77768 -1.41785,-2.46911 0.35256,-4.23951 2.85932,-2.85933 6.62924,-1.27075 6.08236,2.56299 -0.52094,3.65195 -4.03552,4.56762 -6.43492,1.67652 z m 19.56363,1.12084 c -1.63176,-1.63176 -0.91433,-5.8517 1.12809,-6.63545 3.2306,-1.2397 6.18537,1.98823 4.57476,4.99768 -1.35534,2.53248 -4.03778,3.30284 -5.70285,1.63777 z m 16.96443,-1.01256 c -1.21306,-3.16119 0.50334,-6.35378 3.14265,-5.8455 1.47603,0.28426 2.33737,1.66504 2.33737,3.74695 0,3.80084 -4.20837,5.41241 -5.48002,2.09855 z m 16.95361,0.0705 c -2.06189,-2.48442 -0.44274,-6.169 2.71091,-6.169 3.23515,0 4.63315,3.40823 2.46807,6.01698 -2.04315,2.46185 -3.23301,2.49678 -5.17898,0.15202 z m 16.74863,0.94211 c -1.63176,-1.63176 -0.91433,-5.8517 1.12809,-6.63545 3.2306,-1.2397 6.18537,1.98823 4.57476,4.99768 -1.35534,2.53248 -4.03778,3.30284 -5.70285,1.63777 z m 16.92662,-1.11111 c -1.05626,-2.75256 0.37589,-6 2.64606,-6 1.03322,0 2.62552,0.9 3.53844,2 1.32424,1.59562 1.32424,2.40438 0,4 -0.91292,1.1 -2.50522,2 -3.53844,2 -1.03323,0 -2.22395,-0.9 -2.64606,-2 z m 16.84309,-0.01 c -1.47535,-1.77768 -1.41785,-2.46911 0.35255,-4.23951 2.85933,-2.85933 6.62925,-1.27075 6.08237,2.56299 -0.52094,3.65195 -4.03552,4.56762 -6.43492,1.67652 z m 17.3555,0.0267 c -2.16508,-2.60875 -0.76707,-6.01698 2.46808,-6.01698 3.15364,0 4.77279,3.68458 2.71091,6.169 -1.94598,2.34476 -3.13584,2.30983 -5.17899,-0.15202 z m 16.50589,0.0816 c -1.21306,-3.16119 0.50334,-6.35378 3.14265,-5.8455 1.47603,0.28426 2.33737,1.66504 2.33737,3.74695 0,3.80084 -4.20837,5.41241 -5.48002,2.09855 z m 18.34883,0.72127 c -2.63043,-1.66698 -1.29884,-6.08759 1.97511,-6.55698 3.34334,-0.47934 5.2372,3.22957 3.01583,5.90616 -1.75753,2.11769 -2.51949,2.21705 -4.99094,0.65082 z m -199.68218,-8.72127 c -1.21306,-3.16119 0.50334,-6.35378 3.14266,-5.8455 1.47603,0.28426 2.33736,1.66504 2.33736,3.74695 0,3.80084 -4.20837,5.41241 -5.48002,2.09855 z m 16.2674,-0.26477 c -0.49407,-1.28753 -0.0844,-3.10816 0.92691,-4.11949 2.54986,-2.54986 6.52216,-0.71057 6.02288,2.78875 -0.51152,3.58501 -5.70327,4.57912 -6.94979,1.33074 z m 20.10151,1.27733 c -1.70815,-1.70814 -0.86988,-5.49976 1.40927,-6.37436 3.0976,-1.18865 6.26957,2.97262 4.18266,5.48719 -1.58762,1.91296 -4.15829,2.32081 -5.59193,0.88717 z m 16.43637,-1.12084 c -1.47071,-1.7721 -1.43438,-2.45257 0.21923,-4.10618 2.69464,-2.69464 6.71032,-1.00519 6.19268,2.60533 -0.50206,3.50183 -4.06005,4.33466 -6.41191,1.50085 z m 16.45057,-0.0937 c -0.44393,-1.15686 0.17491,-3.08543 1.37518,-4.28571 1.96304,-1.96304 2.38822,-1.97643 4.23132,-0.13333 1.15918,1.15917 1.67626,3.02033 1.19068,4.28571 -1.08558,2.82898 -5.72781,2.92004 -6.79718,0.13333 z m 68.4464,1.2145 c -1.68905,-1.68905 -0.88122,-5.49541 1.34784,-6.35078 1.23019,-0.47207 3.05224,-0.0428 4.04899,0.95396 0.99675,0.99675 1.42603,2.81879 0.95396,4.04899 -0.85537,2.22906 -4.66173,3.03689 -6.35079,1.34783 z m 16.96443,-1.01256 c -1.21306,-3.16119 0.50334,-6.35378 3.14265,-5.8455 1.47604,0.28426 2.33737,1.66504 2.33737,3.74695 0,3.80084 -4.20837,5.41241 -5.48002,2.09855 z m 17.70224,1.01256 c -1.68905,-1.68905 -0.88122,-5.49541 1.34784,-6.35078 1.25079,-0.47997 3.1104,0.0154 4.21879,1.12376 1.62853,1.62853 1.6761,2.35076 0.26669,4.049 -1.80035,2.16928 -4.331,2.68034 -5.83332,1.17802 z m 16.96443,-1.01256 c -1.21306,-3.16119 0.50334,-6.35378 3.14265,-5.8455 1.47604,0.28426 2.33737,1.66504 2.33737,3.74695 0,3.80084 -4.20837,5.41241 -5.48002,2.09855 z m 15.92252,-0.20194 c -0.44393,-1.15686 0.1749,-3.08543 1.37518,-4.28571 2.02087,-2.02088 2.34377,-2.02088 4.36465,0 2.72597,2.72598 1.47476,6.3891 -2.18233,6.3891 -1.5127,0 -3.11357,-0.94652 -3.5575,-2.10339 z m -229.0706,-6.71516 c -2.51655,-2.51656 -2.51662,-2.51293 0.10268,-5.13223 2.51292,-2.51293 5.85874,-0.62566 5.85874,3.30472 0,3.2389 -3.48246,4.30647 -5.96142,1.82751 z m 16.83235,0.48948 c -2.24896,-2.24896 -1.88106,-4.72662 0.92481,-6.22828 2.66195,-1.42463 5.53759,0.3637 5.53759,3.44377 0,2.62255 -4.62958,4.61733 -6.4624,2.78451 z m 33.937,-0.38681 c -2.78225,-2.78224 -2.70304,-4.22297 0.32114,-5.84147 4.36176,-2.33434 7.54242,3.23365 3.67886,6.44012 -1.4351,1.19103 -2.34677,1.05459 -4,-0.59865 z m 19.20616,0.0662 c -2.16507,-2.60876 -0.76707,-6.01698 2.46808,-6.01698 3.41322,0 4.57796,3.41606 2.03261,5.96141 -2.49718,2.49718 -2.47456,2.4969 -4.50069,0.0556 z m 118.98592,1.00883 c -0.91667,-0.31975 -1.66667,-1.96718 -1.66667,-3.66094 0,-3.18106 2.09127,-4.73864 5,-3.72402 0.91667,0.31975 1.66667,1.96718 1.66667,3.66094 0,3.18106 -2.09127,4.73864 -5,3.72402 z m 17.16248,-0.73001 c -2.01803,-2.01803 -1.88314,-4.3145 0.36293,-6.17857 2.29654,-1.90596 6.42908,1.58128 5.31485,4.48493 -0.99941,2.6044 -3.90138,3.47004 -5.67778,1.69364 z m 16.54278,-0.44769 c -1.12123,-1.12123 -2.03859,-2.25288 -2.03859,-2.51478 0,-0.2619 0.91736,-1.39355 2.03859,-2.51478 2.69041,-2.69041 5.96141,-1.31056 5.96141,2.51478 0,3.82534 -3.271,5.20519 -5.96141,2.51478 z m -189.56295,-1.19843 c -1.0101,-2.63226 1.8502,-6.03011 4.2885,-5.09444 1.04638,0.40153 1.90251,2.16587 1.90251,3.92074 0,2.31823 -0.74061,3.19068 -2.70851,3.19068 -1.48968,0 -3.05681,-0.90764 -3.4825,-2.01698 z m 205.26588,-0.17583 c -0.51623,-1.34526 0.12069,-2.89635 1.64785,-4.01304 2.11229,-1.54454 2.77854,-1.531 4.39896,0.0894 1.05031,1.05031 1.54644,2.85618 1.10251,4.01304 -1.06229,2.7683 -6.07678,2.70558 -7.14932,-0.0894 z m -230.55489,-6.37531 c -1.21306,-3.16119 0.50334,-6.35378 3.14266,-5.84549 1.47603,0.28426 2.33736,1.66503 2.33736,3.74695 0,3.80083 -4.20837,5.4124 -5.48002,2.09854 z m 16.82745,-0.0816 c -2.21546,-2.66947 -0.73972,-6.01698 2.65257,-6.01698 1.5127,0 3.09866,0.90764 3.52435,2.01698 0.76616,1.99658 -1.58208,5.98302 -3.52435,5.98302 -0.55375,0 -1.7474,-0.89236 -2.65257,-1.98302 z m 16.50589,0.0816 c -1.21306,-3.16119 0.50334,-6.35378 3.14265,-5.84549 1.47603,0.28426 2.33737,1.66503 2.33737,3.74695 0,3.80083 -4.20837,5.4124 -5.48002,2.09854 z m 154.66668,0 c -1.21306,-3.16119 0.50333,-6.35378 3.14265,-5.84549 1.47603,0.28426 2.33737,1.66503 2.33737,3.74695 0,3.80083 -4.20837,5.4124 -5.48002,2.09854 z m 18.34883,0.72127 c -2.48765,-1.57649 -1.3751,-6.01913 1.65339,-6.60236 3.19834,-0.61594 4.9957,2.27966 3.33785,5.37737 -1.43139,2.67457 -2.34863,2.89969 -4.99124,1.22499 z m 16.31784,-0.72127 c -1.21306,-3.16119 0.50333,-6.35378 3.14265,-5.84549 1.47603,0.28426 2.33736,1.66503 2.33736,3.74695 0,3.80083 -4.20836,5.4124 -5.48001,2.09854 z m -231.19475,-8.10828 c -1.47534,-1.77768 -1.41784,-2.4691 0.35256,-4.23951 2.85933,-2.85932 6.62924,-1.27075 6.08237,2.563 -0.52094,3.65195 -4.03553,4.56762 -6.43493,1.67651 z m 17.57473,0.29086 c -1.15016,-1.38586 -1.08595,-2.42884 0.26314,-4.27382 2.41154,-3.29799 6.50287,-1.70679 5.93039,2.30645 -0.49847,3.49446 -4.00243,4.60749 -6.19353,1.96737 z m 16.52701,-0.51785 c -0.48557,-1.26538 0.0315,-3.12653 1.19068,-4.28571 1.8431,-1.8431 2.25489,-1.8431 4.09799,0 2.50309,2.50309 1.24043,6.52244 -2.04899,6.52244 -1.30975,0 -2.76761,-1.00653 -3.23968,-2.23673 z m 189.05519,0.23673 c -1.05625,-2.75256 0.3759,-6 2.64606,-6 2.72921,0 5.05126,3.31416 4.08546,5.831 -1.04527,2.72392 -5.7062,2.84094 -6.73152,0.169 z m 17.37115,0.0985 c -1.21306,-3.16119 0.50334,-6.35378 3.14265,-5.84549 1.47603,0.28426 2.33737,1.66503 2.33737,3.74695 0,3.80083 -4.20837,5.4124 -5.48002,2.09854 z m -233.41084,-8.20193 c -0.44393,-1.15687 0.1749,-3.08544 1.37518,-4.28572 2.02088,-2.02087 2.34377,-2.02087 4.36465,0 2.72598,2.72598 1.47476,6.38911 -2.18232,6.38911 -1.5127,0 -3.11358,-0.94653 -3.55751,-2.10339 z m 222.66669,0 c -0.44393,-1.15687 0.1749,-3.08544 1.37518,-4.28572 2.02087,-2.02087 2.34377,-2.02087 4.36465,0 2.72597,2.72598 1.47476,6.38911 -2.18233,6.38911 -1.5127,0 -3.11357,-0.94653 -3.5575,-2.10339 z m -229.6359,-6.96846 c -1.65785,-3.09771 0.13951,-5.99331 3.33784,-5.37737 3.02849,0.58324 4.14104,5.02588 1.6534,6.60236 -2.64261,1.6747 -3.55986,1.44959 -4.99124,-1.22499 z m 239.87416,0.42216 c -2.21546,-2.66919 -0.73971,-6.0167 2.65258,-6.0167 1.51269,0 3.09865,0.90764 3.52434,2.01698 0.76617,1.99659 -1.58208,5.98302 -3.52434,5.98302 -0.55375,0 -1.74741,-0.89236 -2.65258,-1.98302 z m 132.91078,99.16267 c 4.9732,-2.37242 9.8055,-5.90974 12.1482,-8.89286 3.7954,-4.83275 15.2623,-24.28651 14.3157,-24.28651 -0.2618,0 -3.6563,1.65 -7.5433,3.66667 -6.1239,3.17715 -8.5879,3.66125 -18.4564,3.62609 -13.3778,-0.0477 -26.6291,-3.67046 -36.5938,-10.00449 l -6.5381,-4.15588 -6.2569,3.40545 c -8.9967,4.89662 -23.0313,7.88573 -32.2218,6.86268 -4.315,-0.48033 -7.8903,-0.29829 -8.337,0.42447 -1.0761,1.74118 14.6317,15.84978 23.764,21.34459 22.0858,13.28885 48.0257,16.45048 65.7194,8.01007 z M 371.10983,670.04572 c 3.73462,-1.56043 7.39783,-5.43 7.39783,-7.81458 0,-0.29902 -4.17204,-2.18051 -9.2712,-4.1811 -27.3485,-10.72982 -50.20488,-34.84666 -58.23883,-61.45053 -1.78173,-5.90009 -2.39499,-12.19984 -2.33632,-24 0.11232,-22.59202 3.15725,-33.87229 22.42333,-83.06947 11.00567,-28.10371 14.2933,-41.77007 14.33688,-59.5972 0.0418,-17.08015 -0.64045,-20.44056 -10.28604,-50.66667 -10.92182,-34.22535 -11.78415,-38.62954 -11.87844,-60.66666 -0.094,-21.97212 1.55451,-30.06849 9.4933,-46.62447 3.58599,-7.47844 7.40348,-12.62767 14.953,-20.16944 11.55682,-11.54495 22.16437,-17.37682 36.35922,-19.98974 l 8.88823,-1.6361 4.73469,-10.12346 c 6.38181,-13.64527 8.26503,-19.28755 12.88041,-38.59091 7.8259,-32.73105 21.74155,-50.15106 48.59509,-60.83273 23.90533,-9.50896 61.10701,-9.55208 88.9383,-0.10311 5.05998,1.7179 8.28258,1.85024 18.5978,0.76374 6.8625,-0.72283 16.25366,-1.32464 20.86926,-1.33734 l 8.39199,-0.0231 11.81722,-11.19915 c 8.49421,-8.04995 14.7406,-12.642888 22.21329,-16.333338 9.88069,-4.87965 11.02708,-5.1332 23.12413,-5.11444 11.38707,0.0177 13.49308,0.42029 19.98942,3.8216 9.9432,5.20592 21.4245,16.517718 29.8308,29.390198 6.6787,10.227 10.9786,17.75752 41.551,72.76846 12.0995,21.7713 29.1821,49.33334 30.5764,49.33334 0.3372,0 -1.0763,-3.75 -3.1413,-8.33334 -2.0649,-4.58333 -7.4542,-20.33333 -11.9763,-35 -18.1957,-59.01551 -25.5715,-76.97574 -38.7744,-94.41636 -12.1535,-16.054408 -28.8432,-26.968658 -46.4003,-30.343407 -19.00263,-3.652627 -45.83877,0.814678 -66.04264,10.993859 -9.3514,4.71146 -14.3165,4.58429 -16.06262,-0.4114 -1.93504,-5.53621 -0.14707,-7.74999 9.84505,-12.189676 5.13312,-2.280737 9.33293,-4.552128 9.33293,-5.047535 0,-1.596549 -15.62788,-5.344472 -28.32374,-6.792679 -16.40483,-1.871286 -48.3142,-0.690283 -61.34293,2.270373 -5.68333,1.291485 -10.33333,2.855606 -10.33333,3.475825 0,0.62022 0.5658,1.127672 1.25733,1.127672 0.69153,0 4.81294,3.29186 9.15867,7.315244 8.36248,7.742176 16.62728,21.425266 18.2639,30.237464 0.79973,4.30605 0.49021,5.15943 -2.60751,7.18913 -2.8311,1.85501 -4.15286,2.01245 -6.79368,0.80921 -1.80329,-0.82163 -3.27871,-2.31091 -3.27871,-3.3095 0,-4.52148 -8.59643,-18.418798 -15.33603,-24.792838 -32.94804,-31.160879 -85.8555,-18.126013 -127.50819,31.414318 -13.56467,16.13338 -52.75612,70.05446 -68.28906,93.95468 -9.265,14.25587 -20.12781,36.58306 -22.95551,47.18229 -5.55313,20.81508 -3.4591,44.22565 6.25594,69.93938 2.92177,7.73334 6.90693,18.26062 8.8559,23.39395 4.79884,12.63952 5.12721,30.51582 0.71259,38.79291 -3.5106,6.58211 -10.95718,13.35713 -18.28914,16.63975 -3.53709,1.5836 -4.71482,2.65867 -3.4205,3.12237 4.50219,1.61294 14.2999,3.38194 18.89963,3.41238 6.93699,0.0459 12.32845,4.87384 12.12972,10.86189 -0.0924,2.78392 -4.22787,12.47086 -10.82855,25.36479 -14.72418,28.76257 -21.34115,49.84459 -24.25197,77.2681 -2.3907,22.52327 -0.0799,31.25808 13.66227,51.64446 10.63032,15.76993 10.96796,16.98106 10.6568,38.22669 -0.31979,21.83521 1.33843,29.4206 8.17843,37.4116 10.98977,12.83908 41.25118,21.6942 54.79649,16.03461 z m 361.62436,-20.79156 c 23.2072,-11.42488 47.6382,-46.54162 61.1233,-87.85787 10.959,-33.57664 14.6871,-62.90138 13.5647,-106.69826 -1.2318,-48.06175 -8.7158,-91.11954 -29.1002,-167.42111 -6.533,-24.45373 -7.0282,-25.68896 -14.4329,-36 -12.7578,-17.76507 -27.6064,-43.08468 -47.4249,-80.8682 -27.4919,-52.41266 -43.328,-69.68392 -63.97644,-69.77416 -6.40106,-0.028 -9.76533,0.83217 -16.66667,4.26121 -8.04189,3.99574 -21.3134,14.06397 -21.3134,16.16908 0,0.50849 3.74718,1.63665 8.32707,2.50702 10.81972,2.05621 27.82016,10.59327 36.72352,18.44135 19.29962,17.01209 31.85752,46.67794 44.83722,105.91962 1.8477,8.43333 5.4626,21.51626 8.033,29.07317 2.5704,7.55692 5.0376,16.85692 5.4828,20.66667 0.4451,3.80976 1.3841,8.72683 2.0865,10.92683 0.8504,2.66348 0.5452,17.58792 -0.9136,44.66666 l -2.1907,40.66667 9.0267,16 c 17.7255,31.41887 36.2488,78.3167 42.037,106.43053 6.0058,29.17048 2.2209,64.28241 -9.5511,88.60329 -4.4622,9.21887 -7.6949,13.60178 -16.3949,22.22849 -5.9603,5.91 -15.6368,13.98673 -21.5035,17.9483 -14.6795,9.91259 -14.6732,9.90078 -4.8591,9.06861 5.7153,-0.48462 11.2779,-2.09879 17.0856,-4.9579 z M 576.43508,577.84325 c 21.06701,-5.65976 36.03371,-19.08899 40.73234,-36.54805 3.15857,-11.73654 1.04708,-40.31997 -2.80271,-37.94066 -0.74352,0.45952 -8.66552,2.78982 -17.60445,5.17846 l -16.25258,4.34296 4.72892,2.01381 c 11.02614,4.69547 14.8427,15.45513 9.32116,26.27823 -3.62014,7.09607 -16.2609,18.0056 -27.22922,23.50002 -17.30251,8.66743 -31.77026,5.56157 -48.38316,-10.38664 -11.58186,-11.11846 -17.77104,-19.71409 -17.77104,-24.6807 0,-5.07164 3.8931,-10.01389 10.27287,-13.04129 l 5.01206,-2.37838 -3.30913,-1.34698 c -1.82002,-0.74084 -8.08888,-3.63692 -13.9308,-6.43575 -5.84192,-2.79882 -11.04543,-4.64852 -11.56335,-4.11044 -2.14235,2.22574 -5.33532,18.74037 -5.37077,27.77856 -0.0803,20.46425 8.61392,33.30725 28.86227,42.63517 17.94192,8.2654 45.56334,10.44071 65.28759,5.14168 z m -129.232,-78.36672 c 1.77187,-11.05834 9.62866,-24.69612 20.47602,-35.54216 11.35701,-11.35563 18.9682,-15.60791 35.51883,-19.84396 5.85369,-1.49822 15.724,-4.9292 21.93401,-7.62441 9.77102,-4.24071 13.45045,-5.07777 27.33333,-6.21828 15.53889,-1.27656 16.33535,-1.21103 25.37574,2.08758 20.11735,7.34032 35.00517,13.16157 42.40383,16.5802 12.54716,5.79755 26.49604,21.74084 31.0963,35.54242 l 2.1749,6.52508 9.54936,-9.85841 c 5.25219,-5.42213 14.52769,-14.60053 20.61239,-20.39645 17.9256,-17.07502 17.0674,-14.66329 18.7876,-52.7953 0.8105,-17.96667 2.0429,-42.86667 2.7386,-55.33333 1.5633,-28.01256 1.5572,-34.3594 -0.03,-30.66667 -0.6302,1.46667 -1.1904,5.66667 -1.2447,9.33333 -0.1591,10.73537 -3.6965,29.74881 -6.394,34.36756 -3.2035,5.48531 -12.2268,10.98448 -22.3613,13.62794 -18.78116,4.89885 -63.063,3.80278 -78.16279,-1.93469 -4.18423,-1.58988 -6.41577,-1.94772 -6.00218,-0.96247 3.05224,7.27093 3.84787,11.7521 2.35214,13.24782 -3.02604,3.02604 -5.86073,-0.97406 -15.02511,-21.20226 -9.54893,-21.07691 -12.69731,-30.81681 -14.05385,-43.47723 l -0.82147,-7.66667 h -11.50965 -11.50966 l -2.35845,11.4577 c -3.18021,15.44996 -5.27302,21.47559 -13.06837,37.62654 -5.71637,11.84358 -7.04408,13.69299 -9.57214,13.33334 -2.38035,-0.33864 -2.89882,-1.2294 -2.74279,-4.71227 l 0.19239,-4.29469 -3.97403,2.05505 c -13.48346,6.97257 -52.76052,7.75466 -80.87313,1.61036 -10.94054,-2.39117 -20.31072,-8.5915 -23.79098,-15.74269 -3.3176,-6.81697 -6.46803,-32.61644 -5.46291,-44.73684 0.41281,-4.97795 0.11432,-7.26316 -0.94868,-7.26316 -0.85305,0 -4.71463,3.31478 -8.5813,7.36617 l -7.03029,7.36618 0.10668,23.9064 c 0.15761,35.31917 3.74569,81.94668 6.84884,89.00139 1.47815,3.36043 8.73756,12.09442 17.9602,21.60842 13.58733,14.01656 16.13936,17.39701 20.87983,27.65774 2.9703,6.4292 7.54943,14.92689 10.17584,18.88375 4.26208,6.42109 4.95461,6.94905 6.4438,4.91247 0.91767,-1.255 2.06821,-4.77647 2.55675,-7.8255 z m 69.43141,-80.36068 c -1.77445,-4.62413 8.82714,-16.41803 16.41661,-18.26291 3.92772,-0.95477 12.12324,2.2647 12.12324,4.76241 0,1.00022 -1.79833,3.5415 -3.9963,5.64728 -2.9457,2.82216 -5.47666,3.9005 -9.62732,4.10179 -4.0529,0.19655 -6.1547,1.06181 -7.49966,3.08742 -2.21432,3.33495 -6.25289,3.69652 -7.41657,0.66401 z m 62.76912,-1.02023 c -1.46054,-2.22907 -3.8538,-3.43694 -8.05951,-4.06763 -6.3562,-0.95317 -12.83642,-5.06502 -12.83642,-8.14501 0,-4.771 11.46829,-6.15136 18,-2.16655 2.2,1.34216 5.7279,4.93457 7.83978,7.98315 3.16493,4.5687 3.54632,5.89644 2.17007,7.55472 -2.38384,2.87236 -4.72223,2.49149 -7.11392,-1.15868 z m -3.22926,79.80877 c 7.88333,-1.9987 14.30993,-4.00996 14.28133,-4.46945 -0.0608,-0.97741 -10.34333,-8.84859 -17.19406,-13.16194 -6.52405,-4.10766 -10.33278,-3.77858 -18.81573,1.62571 -3.99935,2.5479 -8.04149,4.6479 -8.98254,4.66667 -0.94104,0.0188 -4.6711,-1.46587 -8.28901,-3.29921 -9.13639,-4.62976 -12.95472,-4.27361 -22.49684,2.09838 -4.47372,2.98744 -8.44922,5.94166 -8.83443,6.56495 -0.72751,1.17713 9.7823,5.50336 21.33127,8.78074 10.08801,2.86279 31.4711,1.63835 49.00001,-2.80585 z m 148.43264,-24.11525 c 2.2547,-1.06594 6.0166,-3.56967 8.3599,-5.56385 l 4.2606,-3.62578 -5.7918,-12.66667 c -3.1855,-6.96667 -7.9335,-16.86667 -10.5511,-22 l -4.7592,-9.33333 -0.7368,7.33333 c -1.5839,15.76398 -3.298,47.32511 -2.6291,48.40746 0.8214,1.32897 5.9983,0.21419 11.8475,-2.55116 z m -48.2382,-109.28286 c 9.4325,-3.71859 11.4103,-7.10449 12.8508,-22.00038 0.6687,-6.91518 1.2321,-16.89587 1.252,-22.17931 l 0.036,-9.60625 -4.3334,-0.79258 c -7.5888,-1.38802 -23.62117,-2.83893 -22.86775,-2.0695 0.39921,0.40768 2.63277,1.39342 4.96345,2.19052 5.6439,1.93022 7.7228,7.3664 4.2742,11.17702 -2.8935,3.19728 -4.88807,3.32081 -12.03653,0.74549 -9.14141,-3.29331 -10.82792,-2.78844 -12.47003,3.73297 -2.89746,11.50686 -10.62156,16.59364 -22.97518,15.13054 -12.28899,-1.45545 -17.09309,-5.9939 -17.48888,-16.52181 l -0.17005,-4.52352 -7.84008,0.38855 c -9.00213,0.44614 -10.85566,-1.03807 -9.85761,-7.89347 l 0.6282,-4.31495 -4.91319,2.02507 c -7.19439,2.96531 -8.59952,5.41852 -7.69749,13.43899 1.90369,16.92677 9.73083,32.73166 18.84639,38.05543 9.18135,5.3622 17.29458,6.4212 45.93791,5.99619 23.22186,-0.34456 28.31524,-0.79266 33.86114,-2.979 z m -66.96736,-16.24011 c -2.72414,-5.29661 -1.07735,-5.66666 25.21736,-5.66666 h 25.22223 v 3.19068 c 0,1.75487 -0.94907,3.55487 -2.10905,4 -1.15998,0.44512 -12.23887,0.80932 -24.61976,0.80932 -20.09271,0 -22.63961,-0.25064 -23.71078,-2.33334 z M 498.22946,361.802 c 13.21729,-3.70134 21.34645,-14.44217 26.17682,-34.58668 2.65677,-11.07975 1.61802,-15.41831 -4.44178,-18.55195 -5.29015,-2.73565 -5.45683,-2.6815 -5.45683,1.77288 0,6.52644 -2.74359,7.5698 -13.24216,5.03583 -13.35874,-3.2243 -13.06798,-3.33658 -12.41544,4.79409 0.67389,8.39666 -2.96338,14.9439 -10.36898,18.6646 -12.91832,6.49039 -27.97342,-2.85838 -27.97342,-17.37067 v -5.97838 l -5.66667,0.88005 c -17.44699,2.70957 -20.63692,2.64085 -22.30745,-0.48056 -3.12738,-5.84357 -0.8258,-8.95242 8.30364,-11.21612 l 8.33715,-2.06724 -11.94279,0.70946 c -6.56853,0.39019 -12.41853,1.00348 -13,1.36284 -1.5534,0.96006 -1.27502,37.65825 0.32948,43.43538 2.69656,9.70916 12.79901,13.85266 38.21875,15.67536 18.99858,1.36227 35.92644,0.58798 45.44968,-2.07889 z m -56.35931,-13.36382 c -1.05371,-1.05371 -1.57714,-2.79848 -1.16318,-3.87726 0.62261,-1.62249 4.76717,-1.96141 23.9852,-1.96141 20.32906,0 23.33769,0.27404 24.07399,2.19281 0.51915,1.35289 -0.13174,2.90443 -1.6993,4.05066 -3.68651,2.69563 -42.44339,2.34851 -45.19671,-0.4048 z m 262.66364,-48.12961 c -0.5189,-3.46001 -3.3047,-12.91001 -6.1908,-21 -2.886,-8.08998 -7.0852,-24.00906 -9.3315,-35.37573 -6.4292,-32.53307 -16.3236,-60.72992 -27.13666,-77.33333 -18.58353,-28.53504 -43.7877,-37.01597 -94.55169,-31.81561 -13.69311,1.40274 -15.52251,1.30795 -24.1488,-1.25137 -15.11296,-4.48384 -25.71002,-5.99505 -42,-5.98949 -10.00419,0.003 -18.34546,0.78281 -24,2.2425 -27.61013,7.12743 -46.43377,25.27847 -52.00554,50.1473 -4.01981,17.94189 -11.8829,38.69731 -24.75123,65.33333 -13.0052,26.91934 -19.24324,44.14217 -19.24324,53.12941 v 3.3695 l 3.66667,-3.41987 c 5.3726,-5.01099 8.8685,-6.45959 15.27688,-6.33031 3.14771,0.0635 9.62312,-0.50458 14.38979,-1.26241 23.15957,-3.68203 81.72564,-2.8644 101.96918,1.42358 8.35748,1.77027 16.20321,5.66814 18.35981,9.12141 1.48857,2.38359 3.15226,2.63536 17.41404,2.63536 14.58498,0 16.08674,-0.2405 20.01261,-3.20496 7.76993,-5.86715 16.9026,-7.60095 44.24437,-8.39962 24.63436,-0.71958 51.22551,0.69263 72.48741,3.84969 9.0935,1.35024 10.0167,1.79015 12.4651,5.93989 1.4543,2.46492 2.9531,4.48167 3.3306,4.48167 0.3775,0 0.2618,-2.83092 -0.257,-6.29094 z m -130.7568,-11.61965 c -2.76112,-4.21401 -1.1356,-7.37056 6.41735,-12.46163 14.28291,-9.62741 31.33061,-13.62778 58.07515,-13.62778 27.69883,0 41.9691,3.74457 46.3178,12.15392 1.8986,3.67152 1.828,4.05969 -1.3091,7.19679 -3.3107,3.31065 -3.3585,3.31595 -29.90196,3.31595 -28.47387,0 -49.60519,1.62056 -61.72768,4.73388 -11.08904,2.84791 -15.35134,2.53521 -17.87156,-1.31113 z m -73.93598,-3.44782 c -14.69857,-4.43099 -20.59692,-4.68574 -46.00001,-1.98675 -26.10773,2.77386 -32.0278,2.65069 -35.41532,-0.73683 -6.32438,-6.32438 -1.04006,-10.84706 20.74866,-17.7581 28.16599,-8.93381 54.59914,-8.15018 77.08757,2.28533 16.33225,7.5788 22.03238,14.65419 15.91243,19.75159 -4.08582,3.40315 -18.12541,2.72784 -32.33333,-1.55524 z"
       id="path1" />
  </g>
</svg>
