<?xml version="1.0" encoding="utf-8"?>
<!-- Svg Vector Icons : http://www.onlinewebfonts.com/icon -->
<svg x="0px" y="0px" viewBox="0 0 1000 1000" >
<g transform="translate(0.000000,512.000000) scale(0.1,-0.1)">
<path d="M4098.6,4669c0-193.7,5.8-431.5,13.4-529.3l11.5-176.5l115.1-78.6c63.3-42.2,182.2-132.3,266.6-199.5c82.5-67.1,153.4-122.7,157.3-122.7c3.8,0,21.1,84.4,40.3,187.9c17.3,101.7,34.5,199.5,40.3,216.7c3.8,15.3-53.7,136.2-128.5,268.5c-136.2,235.9-489.1,784.4-506.3,784.4C4102.4,5020,4098.6,4860.8,4098.6,4669z"/>
<path d="M5880.3,4747.7c-99.7-151.5-241.6-381.7-316.4-512.1l-136.2-235.9l38.3-195.6c19.2-105.5,38.4-195.6,42.2-199.5c1.9-3.8,72.9,40.3,155.4,95.9c84.4,57.5,205.2,132.3,268.5,168.8l118.9,63.3l11.5,164.9c15.3,197.5,21.1,901.4,7.7,914.8C6064.4,5016.2,5980,4897.3,5880.3,4747.7z"/>
<path d="M4955.9,4471.5c-140-567.7-247.4-1077.8-289.6-1388.5l-28.8-201.4l3.8,260.8l1.9,260.8l-67.1,57.5c-193.7,168.8-586.9,414.2-960.9,602.2c-276.2,138.1-705.8,329.9-717.3,318.4c-3.8-1.9,120.8-109.3,276.2-234c303-247.4,911-840,1020.3-997.3l67.1-95.9l-176.4,149.6c-97.8,82.5-186,163-199.5,178.4c-67.1,82.5-623.3-49.9-1041.4-247.4l-209-99.7H2921c260.8,0,297.3-3.8,425.8-51.8c272.3-97.8,473.7-257,619.5-481.4c90.1-138.1,140-270.4,201.4-521.7c26.8-105.5,65.2-237.8,88.2-293.4l38.4-99.7l-270.4-270.4l-270.4-272.3l42.2-53.7c176.4-218.6,469.9-552.3,485.2-552.3c11.5,0,57.5,47.9,105.5,105.5c47.9,57.5,182.2,209,297.3,337.5l211,230.1l101.6,5.8l101.7,3.8L5326,869.7c124.7-138.1,258.9-291.5,299.2-341.4c42.2-49.9,84.4-90.1,94-90.1c15.3,0,305,329.9,483.3,552.3l44.1,51.8L5982,1307l-264.7,264.7l86.3,176.4c47.9,95.9,111.3,239.7,140,318.4c155.3,427.7,467.9,725,878.4,836.2c205.2,55.6,496.7,46,705.8-24.9c57.5-17.3-153.4,128.5-312.6,218.7c-195.6,109.3-421.9,201.4-608,245.5l-145.8,34.5l-203.3-157.3c-111.2-86.3-203.3-149.6-203.3-140c0,61.4,728.8,680.8,1173.7,1001.1c124.7,88.2,222.5,163,218.6,168.8c-15.3,13.4-491-130.4-759.5-228.2c-305-113.2-811.3-358.6-1018.4-492.9l-147.7-95.9l-24.9-235.9l-24.9-237.8l-23,258.9c-26.8,316.4-51.8,483.3-124.7,843.9c-61.4,293.4-201.4,853.5-228.2,899.5C5088.2,4975.9,5032.6,4789.9,4955.9,4471.5z"/>
<path d="M4021.9,1560.2c-143.8-59.5-318.4-151.5-414.3-216.7l-80.5-53.7l74.8-86.3l72.9-84.4l245.5,237.8c134.2,130.4,249.3,239.7,253.1,243.6C4204.1,1621.5,4108.2,1596.6,4021.9,1560.2z"/>
<path d="M5824.7,1604.3c5.8-5.7,120.8-117,255.1-247.4l245.5-237.8l72.9,84.4l74.8,86.3l-97.8,65.2c-111.2,74.8-418.1,222.5-502.5,243.6C5841.9,1606.2,5818.9,1608.1,5824.7,1604.3z"/>
<path d="M3291.2,1074.9c-69-72.9-157.3-168.8-193.7-216.7c-80.5-101.6-226.3-337.5-226.3-364.4c0-34.5,140-232.1,153.4-216.7c7.7,7.7,78.6,105.5,159.2,216.7c78.6,111.2,201.4,270.4,270.4,354.8c69,84.4,126.6,157.3,126.6,163c-1.9,5.8-38.4,49.9-82.5,101.7l-80.6,92.1L3291.2,1074.9z"/>
<path d="M6495.9,1109.5c-57.5-71-74.8-105.5-61.4-122.7c9.6-11.5,90.1-113.2,180.3-224.4c88.2-111.2,207.1-268.5,264.7-349.1l103.6-149.6l63.3,90.1c34.5,47.9,67.1,103.6,72.9,122.7c21.1,63.3-226.3,421.9-427.7,617.5l-113.2,111.2L6495.9,1109.5z"/>
<path d="M4766,768.1c-120.8-136.2-257-291.5-304.9-349.1l-88.2-103.6l306.9-381.7c168.8-209,312.6-379.7,320.3-379.7s151.5,170.7,320.3,379.7l306.9,381.7l-105.5,122.7c-220.5,260.8-506.3,573.4-521.7,573.4C4990.4,1011.6,4884.9,902.3,4766,768.1z"/>
<path d="M3471.5,700.9c-151.5-193.7-335.6-441.1-377.8-510.1c-9.6-15.4,65.2-138.1,209-345.2c124.7-176.4,232.1-328,239.7-335.6c7.7-9.6,118.9,118.9,247.4,287.7c126.6,166.9,266.6,349,310.7,404.7c72.9,90.1,76.7,103.6,51.8,134.2c-15.3,17.3-128.5,155.4-253.2,306.9c-124.7,149.6-234,272.3-241.7,272.3C3649.8,915.8,3567.3,817.9,3471.5,700.9z"/>
<path d="M6075.9,614.6c-138.1-164.9-251.2-306.9-251.2-312.6s80.6-111.2,178.4-234c97.8-122.7,234-303,301.1-397c69-94,130.4-172.6,136.2-172.6c5.8-1.9,117,149.6,245.5,333.7c149.6,211,230.1,343.3,220.5,358.7c-72.9,124.7-540.8,725-565.8,725C6332.9,915.8,6214,779.6,6075.9,614.6z"/>
<path d="M2736.9,231.1c-115.1-295.3-249.3-751.8-249.3-843.9c0-19.2,57.5,71,124.7,201.4c69,130.4,168.8,305,220.6,389.3c53.7,84.4,95.9,157.3,95.9,163c0,19.2-120.8,199.5-132.3,199.5C2786.8,340.4,2761.8,290.5,2736.9,231.1z"/>
<path d="M7130.8,244.5c-32.6-53.7-59.4-99.7-59.4-105.5c0-3.8,49.9-88.2,109.3-186c59.4-97.8,159.2-272.3,220.6-389.3c59.4-115.1,111.2-193.7,111.2-172.6c0,126.6-268.5,949.3-308.8,949.3C7196,340.4,7163.3,296.3,7130.8,244.5z"/>
<path d="M4184.9,87.2c-42.2-53.7-182.2-237.8-310.7-406.6l-234-306.9l42.2-59.4c24.9-30.7,159.2-214.8,301.1-408.5c141.9-191.8,262.7-343.3,270.4-335.6c82.5,90.2,619.5,809.4,619.5,834.3c1.9,28.8-579.2,782.5-602.2,780.6C4265.5,185,4227.1,140.9,4184.9,87.2z"/>
<path d="M5421.9-188.9c-163-205.2-299.2-383.6-303-397c-3.8-21.1,609.9-838.1,636.7-843.9c5.8-1.9,143.8,176.4,306.9,397L6357.9-630l-107.4,143.8C6095.1-271.4,5772.9,139,5742.2,164C5723,181.2,5654,106.4,5421.9-188.9z"/>
<path d="M2921-66.2c-88.2-140-285.8-487.1-337.5-592.6l-42.2-86.3l61.4-124.7c80.6-163,314.5-573.4,326-573.4c5.8,0,34.5,40.3,65.2,92.1c32.6,49.9,149.6,230.1,264.7,402.8l207.1,310.7l-92.1,130.4c-51.8,71-155.3,220.5-230.1,335.6c-76.7,113.2-143.8,205.2-147.7,205.2C2990.1,33.5,2957.5-12.5,2921-66.2z"/>
<path d="M6766.3-302.1l-230.1-337.5l262.8-400.8c143.8-220.6,266.6-400.9,272.3-402.8c11.5,0,245.5,410.4,327.9,577.3l61.4,128.5l-92.1,168.8c-107.4,203.3-335.6,581.1-356.7,592.6C7004.2,29.7,6894.9-118,6766.3-302.1z"/>
<path d="M4846.6-919.6c-78.6-103.6-224.4-293.4-324.1-423.8l-178.4-235.9l178.4-234c333.7-435.4,462.2-598.4,477.5-598.4s161.1,184.1,477.5,598.4l178.4,235.9l-245.5,320.3c-318.4,420-393.1,512.1-408.5,517.8C4996.2-735.5,4925.2-818,4846.6-919.6z"/>
<path d="M3500.2-833.3c-84.4-113.1-220.6-316.5-360.6-533.2l-136.2-212.9l99.7-157.3c140-218.7,418.1-623.3,437.3-636.7c21.1-11.5,585,755.6,585,795.9c0,24.9-481.4,703.9-554.3,782.5C3552-773.9,3538.6-779.6,3500.2-833.3z"/>
<path d="M6158.4-1159.4c-155.4-214.8-283.8-402.8-283.8-418.1c0-40.3,563.8-807.4,583-795.9c21.1,13.4,249.3,347.1,420,609.9l120.8,187.9l-253.2,381.7c-140,211-264.7,391.2-278.1,402.8C6448-775.8,6375.1-864,6158.4-1159.4z"/>
<path d="M2441.6-950.3c-34.5-86.3-69-383.6-82.5-736.5l-11.5-289.6l65.2-157.3l63.3-155.4l55.6,111.2c30.7,61.4,115.1,220.6,189.9,356.7l134.2,243.6l-115.1,207.1c-63.3,113.2-145.8,268.5-184.1,345.2c-38.4,74.8-72.9,138.1-78.6,138.1C2472.3-887.1,2456.9-915.8,2441.6-950.3z"/>
<path d="M7443.4-1025.1c-38.4-76.7-120.8-232.1-184.1-345.2l-113.1-205.2l141.9-264.7c78.6-145.7,165-306.9,189.9-356.7l46-92.1l63.3,155.4l65.2,157.3l-11.5,289.6c-13.4,352.9-47.9,650.2-82.5,736.5c-15.4,34.5-30.7,63.3-36.4,63.3S7481.7-950.3,7443.4-1025.1z"/>
<path d="M2790.6-1936.1c-69-124.6-153.4-281.9-187.9-349l-61.4-124.7l51.8-105.5c67.1-138.1,368.2-648.2,391.2-661.7c9.6-7.7,120.8,140,249.3,324.1l230.1,337.5l-176.4,262.8c-97.8,143.8-214.8,326-262.7,402.8c-47.9,74.8-90.1,138.1-95.9,138.1C2922.9-1711.7,2861.6-1813.4,2790.6-1936.1z"/>
<path d="M4010.4-2022.4c-124.7-170.7-260.8-354.8-299.2-408.5l-69-97.8l232.1-306.9c318.4-420,385.5-504.4,397-506.3c23-1.9,604.1,753.7,602.2,784.4c0,23-537,744.1-619.5,832.3C4246.3-1717.5,4137-1851.7,4010.4-2022.4z"/>
<path d="M5433.4-2131.8c-178.4-232.1-322.2-427.7-320.3-437.3c5.8-21.1,604.1-772.9,615.6-772.9c11.5,1.9,78.7,88.2,397,506.3c138.1,182.2,228.2,314.5,218.6,328c-9.6,9.6-138.1,187.9-289.6,393.1c-149.6,205.2-280,379.7-285.8,389.3C5761.4-1717.5,5609.9-1899.7,5433.4-2131.8z"/>
<path d="M7006.1-1803.8c-30.7-49.9-149.6-230.1-264.7-400.8l-207.1-312.6l232.1-335.6c128.5-184.1,239.7-331.8,249.3-324.1c23,13.4,324.1,523.6,391.3,661.7l51.8,105.5l-61.4,124.7c-84.4,170.7-314.5,573.4-326,573.4C7065.6-1711.7,7036.8-1752,7006.1-1803.8z"/>
<path d="M2351.4-2377.2l5.8-187.9l38.4,84.4c34.5,74.8,36.4,94,13.4,159.2C2359.1-2166.3,2343.7-2181.6,2351.4-2377.2z"/>
<path d="M7600.6-2292.8c-34.5-90.2-34.5-95.9,0-182.2l36.4-90.1l5.8,92.1c3.8,49.9,3.8,130.4,0,182.2l-5.8,90.2L7600.6-2292.8z"/>
<path d="M2432-2638l-57.5-128.5l26.9-168.8c44.1-270.4,212.9-792.1,255.1-790.2c11.5,1.9,251.2,379.7,268.5,421.9c1.9,7.7-40.3,86.3-94,174.5c-55.6,88.2-155.3,264.7-220.6,391.2l-120.8,228.2L2432-2638z"/>
<path d="M7410.8-2699.4c-51.8-99.7-147.7-272.3-216.7-387.4c-67.1-113.2-120.8-211-118.9-218.6c17.3-42.2,257-418.1,268.5-420c19.2,0,122.7,262.8,174.5,443c26.9,88.2,61.4,241.7,78.6,337.6l28.8,178.4l-55.6,124.7c-30.7,69-57.5,124.7-61.4,124.7C7504.7-2517.2,7460.6-2599.7,7410.8-2699.4z"/>
<path d="M3314.2-2987.1l-237.8-337.5l94-136.2c122.7-176.4,468-609.9,487.1-609.9c11.5,0,360.6,408.5,494.8,579.2c23,28.8,7.7,57.5-134.2,239.7c-90.1,113.1-228.2,295.4-310.7,404.7c-80.6,107.4-149.6,195.6-153.4,195.6C3552-2651.5,3442.7-2803,3314.2-2987.1z"/>
<path d="M6181.4-2991c-143.8-187.9-283.8-370.1-310.7-402.8c-44.1-55.6-47.9-67.1-24.9-95.9c134.2-170.7,485.2-581.1,494.8-581.1c24.9,0,498.6,608,565.8,724.9c9.6,15.3-69,143.8-209,345.2c-124.7,176.4-232.1,328-239.7,335.6C6449.9-2655.3,6325.2-2803,6181.4-2991z"/>
<path d="M4679.7-3090.7l-306.9-379.7l195.6-228.2c107.4-124.7,249.3-283.9,314.5-352.9l117-124.7l117,124.7c65.2,69,207.1,228.2,314.5,352.9l197.5,230.1l-174.5,211c-95.9,117-232.1,287.7-305,381.6c-72.9,92.1-140,166.9-147.7,166.9C4992.3-2709,4848.5-2879.7,4679.7-3090.7z"/>
<path d="M2876.9-3629.6c-76.7-115.1-140-220.5-140-232.1c0-32.6,159.2-230.1,270.4-335.6c57.5-53.7,153.4-130.4,214.8-170.7c124.7-82.5,113.2-86.3,264.7,90.2l97.8,111.2l-113.2,140c-109.3,132.3-366.3,473.7-427.7,565.8C3015-3416.7,3013.1-3420.5,2876.9-3629.6z"/>
<path d="M6927.5-3499.2c-76.7-117-266.6-366.3-397-521.7c-61.4-74.8-111.2-138.1-111.2-145.7c0-5.8,55.6-71,122.8-143.8l120.8-134.2l113.1,74.8c61.4,42.2,159.2,118.9,216.7,172.6c111.2,107.4,270.4,303,270.4,335.6c0,11.5-63.3,117-141.9,232.1l-140,211L6927.5-3499.2z"/>
<path d="M4046.8-3852.1c-124.7-143.8-241.6-280-260.8-304.9l-32.6-44.1l270.4-270.4c352.9-352.9,320.3-351,640.6-38.3l237.8,232.1L4664.4-4017c-130.4,145.8-264.7,299.2-301.1,343.3c-34.5,44.1-69,80.6-76.7,80.6C4278.9-3591.2,4171.5-3708.2,4046.8-3852.1z"/>
<path d="M5636.7-3673.7c-36.4-44.1-170.7-197.5-303-341.4l-235.9-262.8l237.8-232.1c320.3-310.7,287.7-314.5,640.6,38.3c270.4,270.4,270.4,270.4,237.8,314.6c-82.5,107.4-489.1,565.8-500.6,563.9C5705.8-3593.1,5671.2-3629.6,5636.7-3673.7z"/>
<path d="M3565.4-4396.8l-101.7-115.1l92.1-40.3c105.5-44.1,368.2-122.8,477.5-141.9l74.8-13.4l-211,212.9c-115.1,117-214.8,212.9-220.6,212.9C3670.9-4281.7,3621.1-4333.5,3565.4-4396.8z"/>
<path d="M6102.8-4494.6l-211-212.9l74.8,13.4c111.3,19.2,372.1,97.8,477.6,141.9l94,40.3l-99.7,111.2c-55.6,59.5-105.5,111.2-113.2,115.1C6319.5-4283.6,6217.9-4377.6,6102.8-4494.6z"/>
<path d="M4792.9-4567.4c-155.3-147.7-191.8-191.8-166.9-201.4c46-17.2,725-13.4,751.8,3.8c15.3,9.6-40.3,74.8-176.5,201.4c-109.3,101.6-201.4,186-205.2,184.1C4992.3-4379.5,4900.3-4463.9,4792.9-4567.4z"/>
</g>
</svg>
