<?xml version="1.0" encoding="UTF-8" standalone="no"?>
<!-- Created with Inkscape (http://www.inkscape.org/) -->

<!--transform="translate(-42.182691,-43.043285)">-->
<svg viewBox="0 0 102.3559 16.975368">
    <path
       d="
       m 47.825718,53.475883 
       v -5.39044 
       c 0,-0.903111 0.141111,-1.439332 0.649111,-1.439332 
       h 0.310444 
       c 1.058333,0 1.721554,0.366888 1.961443,1.453443 0.155222,0 0.352778,-0.01411 0.479777,-0.07056 -0.09878,-0.64911 -0.169333,-1.368776 -0.183444,-2.003776 0,-0.01411 -0.02822,-0.04233 -0.04233,-0.04233 -0.479778,0.04233 -2.04611,0.112889 -3.160887,0.112889 
       h -1.213554 
       c -1.086555,0 -2.751665,-0.07056 -3.287887,-0.112889 -0.02822,0 -0.05644,0.02822 -0.05644,0.04233 -0.05644,0.635 -0.197555,1.368777 -0.352778,2.04611 0.141111,0.05644 0.310445,0.07055 0.479778,0.07055 0.282222,-1.128888 0.931333,-1.495776 1.862665,-1.495776 
       h 0.691444 
       c 0.522111,0 0.663222,0.536221 0.663222,1.396998 
       v 5.432774 
       c 0,1.171221 -0.239889,1.241777 -1.368777,1.28411 -0.08467,0.08467 -0.08467,0.381 0,0.465666 0.691444,-0.01411 1.41111,-0.02822 1.975554,-0.02822 0.536222,0 1.255888,0.01411 1.961443,0.02822 0.08467,-0.08467 0.08467,-0.380999 0,-0.465666 -1.128888,-0.04233 -1.368777,-0.112889 -1.368777,-1.28411 
       z 
       m 6.928555,1.044221 
       c 0.08467,0.437445 0.239889,0.818444 0.945444,0.818444 0.536222,0 1.044221,-0.239888 1.340555,-0.52211 -0.02822,-0.169334 -0.08467,-0.296334 -0.239889,-0.381 -0.09878,0.08467 -0.338667,0.225777 -0.522111,0.225777 -0.409222,0 -0.423333,-0.550332 -0.423333,-1.199443 
       V 51.38744 
       c 0,-2.003776 -1.100666,-2.384776 -2.130776,-2.384776 -1.15711,0 -2.328332,0.762 -2.328332,1.566332 0,0.338667 0.169334,0.508 0.493889,0.508 0.409222,0 0.663222,-0.296333 0.663222,-0.479777 0,-0.09878 -0.01411,-0.197556 -0.04233,-0.254 -0.01411,-0.04233 -0.02822,-0.127 -0.02822,-0.282222 0,-0.437444 0.592666,-0.592666 1.128888,-0.592666 0.479778,0 1.142999,0.239888 1.142999,1.834443 0,0.09878 -0.04233,0.155222 -0.08467,0.169333 
       l -1.213555,0.296333 
       c -1.354666,0.338666 -2.328331,1.086555 -2.328331,2.046109 0,1.157111 0.790221,1.523999 1.777998,1.523999 0.493889,0 0.917222,-0.112889 1.53811,-0.592666 
       l 0.282222,-0.225778 
       z 
       m 0,-2.610553 
       v 1.862665 
       c 0,0.183444 -0.08467,0.282222 -0.197555,0.366889 -0.366889,0.296333 -0.846666,0.620888 -1.241777,0.620888 -0.705555,0 -1.015999,-0.564444 -1.015999,-1.001888 0,-0.634999 0.296333,-1.28411 1.340554,-1.552221 
       z 
       m 3.654786,1.566332 
       c 0,1.171221 -0.155222,1.241777 -1.015999,1.28411 -0.08467,0.08467 -0.08467,0.381 0,0.465666 0.493888,-0.01411 1.015999,-0.02822 1.580443,-0.02822 0.564444,0 1.100666,0.01411 1.566332,0.02822 0.08467,-0.08467 0.08467,-0.380999 0,-0.465666 -0.860777,-0.04233 -1.015999,-0.112889 -1.015999,-1.28411 
       v -6.505217 
       c 0,-0.917222 0.05644,-1.481666 0.05644,-1.481666 0,-0.09878 -0.05644,-0.141111 -0.183444,-0.141111 -0.352778,0.141111 -1.41111,0.338667 -1.975554,0.381 -0.02822,0.112889 0,0.338666 0.08467,0.423333 0.818444,0.05644 0.903111,0.09878 0.903111,1.15711 
       z 
       m 7.831658,0.409222 
       c -0.52211,0.536222 -0.931332,0.761999 -1.749776,0.761999 -0.508,0 -1.100666,-0.296333 -1.53811,-1.015999 -0.282222,-0.465666 -0.451555,-1.114777 -0.451555,-1.933221 
       l 3.753553,0.02822 
       c 0.169333,0 0.26811,-0.08467 0.26811,-0.239889 0,-1.185332 -0.423333,-2.455331 -2.384775,-2.455331 -1.227666,0 -2.822221,1.171221 -2.822221,3.316108 0,0.790222 0.197556,1.552221 0.663222,2.088443 0.479778,0.564444 1.142999,0.90311 2.158999,0.90311 1.072443,0 1.834443,-0.493888 2.398887,-1.227665 -0.04233,-0.141111 -0.127,-0.211667 -0.296334,-0.225778 
       z 
       m -3.697108,-2.666998 
       c 0.268111,-1.594554 1.255888,-1.721554 1.594555,-1.721554 0.536221,0 1.171221,0.296333 1.171221,1.481665 0,0.127 -0.05645,0.197556 -0.211667,0.197556 
       z 
       m 7.154335,-1.072444 
       c -0.08467,0.09878 -0.169333,0.127 -0.169333,0 -0.01411,-0.380999 -0.04233,-0.931332 -0.112889,-1.072443 -0.02822,-0.07056 -0.05644,-0.112889 -0.169333,-0.112889 -0.395111,0.155222 -0.762,0.282222 -1.735666,0.409222 -0.02822,0.08467 0,0.310444 0.02822,0.395111 0.761999,0.07055 0.917221,0.141111 0.917221,0.959555 
       v 2.751664 
       c 0,1.15711 -0.141111,1.213555 -0.987777,1.28411 -0.08467,0.08467 -0.08467,0.381 0,0.465666 0.423333,-0.01411 0.987777,-0.02822 1.552221,-0.02822 0.564444,0 0.987777,0.01411 1.41111,0.02822 0.08467,-0.08467 0.08467,-0.380999 0,-0.465666 -0.719666,-0.07055 -0.860777,-0.127 -0.860777,-1.28411 
       v -2.31422 
       c 0,-0.296333 0.127,-0.465667 0.239889,-0.592667 0.536222,-0.52211 1.171221,-0.832554 1.721554,-0.832554 0.282222,0 0.578555,0.183444 0.747888,0.507999 0.141111,0.282222 0.169333,0.663222 0.169333,1.086555 
       v 2.144887 
       c 0,1.15711 -0.141111,1.213555 -0.874888,1.28411 -0.07055,0.08467 -0.07055,0.381 0,0.465666 0.423333,-0.01411 0.874888,-0.02822 1.439332,-0.02822 0.564444,0 1.072444,0.01411 1.495777,0.02822 0.07056,-0.08467 0.07056,-0.380999 0,-0.465666 -0.790222,-0.07055 -0.945444,-0.127 -0.945444,-1.28411 
       v -2.102554 
       c 0,-0.77611 -0.05644,-1.453443 -0.380999,-1.890887 -0.239889,-0.310444 -0.677333,-0.479778 -1.171222,-0.479778 -0.691444,0 -1.481665,0.183445 -2.31422,1.142999 
       z 
       m 5.658549,-1.001888 
       c -0.197555,0 -0.254,0.169334 -0.254,0.282222 
       v 0.183445 
       c 0,0.07055 0.01411,0.08467 0.07056,0.08467 
       h 0.832555 
       v 4.247441 
       c 0,1.001888 0.437444,1.396999 1.086554,1.396999 0.649111,0 1.354666,-0.310444 1.904999,-0.931332 -0.02822,-0.141111 -0.112889,-0.225778 -0.254,-0.239889 -0.366888,0.282222 -0.790221,0.395111 -1.15711,0.395111 -0.381,0 -0.465666,-0.423333 -0.465666,-1.298221 
       v -3.570109 
       h 1.467554 
       c 0.141111,0 0.338666,-0.05644 0.338666,-0.183444 
       v -0.282222 
       c 0,-0.05644 -0.04233,-0.08467 -0.112888,-0.08467 
       h -1.693332 
       v -0.550333 
       c 0,-0.917221 0.05644,-1.481665 0.05644,-1.481665 0,-0.08467 -0.04233,-0.127 -0.112889,-0.127 -0.05644,0 -0.183444,0.05644 -0.310444,0.127 -0.155222,0.08467 -0.296333,0.155222 -0.479777,0.197555 -0.169334,0.05645 -0.310445,0.09878 -0.310445,0.197556 0,0.169333 0.04233,0.07056 0.04233,1.636887 
       z 
       m 11.514658,5.376329 
       c 0.08467,0.437445 0.239889,0.818444 0.945444,0.818444 0.536222,0 1.044221,-0.239888 1.340555,-0.52211 -0.02822,-0.169334 -0.08467,-0.296334 -0.239889,-0.381 -0.09878,0.08467 -0.338667,0.225777 -0.522111,0.225777 -0.409222,0 -0.423333,-0.550332 -0.423333,-1.199443 
       V 51.38744 
       c 0,-2.003776 -1.100666,-2.384776 -2.130776,-2.384776 -1.15711,0 -2.328332,0.762 -2.328332,1.566332 0,0.338667 0.169334,0.508 0.493889,0.508 0.409222,0 0.663222,-0.296333 0.663222,-0.479777 0,-0.09878 -0.01411,-0.197556 -0.04233,-0.254 -0.01411,-0.04233 -0.02822,-0.127 -0.02822,-0.282222 0,-0.437444 0.592666,-0.592666 1.128888,-0.592666 0.479778,0 1.142999,0.239888 1.142999,1.834443 0,0.09878 -0.04233,0.155222 -0.08467,0.169333 
       L 85.57293,51.76844 
       c -1.354666,0.338666 -2.328331,1.086555 -2.328331,2.046109 0,1.157111 0.790221,1.523999 1.777998,1.523999 0.493889,0 0.917222,-0.112889 1.53811,-0.592666 
       l 0.282222,-0.225778 
       z 
       m 0,-2.610553 
       v 1.862665 
       c 0,0.183444 -0.08467,0.282222 -0.197555,0.366889 -0.366889,0.296333 -0.846666,0.620888 -1.241777,0.620888 -0.705555,0 -1.015999,-0.564444 -1.015999,-1.001888 0,-0.634999 0.296333,-1.28411 1.340554,-1.552221 
       z 
       m 4.910674,-1.763888 
       c -0.08467,0.09878 -0.169333,0.127 -0.169333,0 -0.01411,-0.380999 -0.04233,-0.931332 -0.112889,-1.072443 -0.02822,-0.07056 -0.05644,-0.112889 -0.169333,-0.112889 -0.395111,0.155222 -0.761999,0.282222 -1.735665,0.409222 -0.02822,0.08467 0,0.310444 0.02822,0.395111 0.761999,0.07055 0.917221,0.141111 0.917221,0.959555 
       v 2.751664 
       c 0,1.15711 -0.141111,1.213555 -0.987777,1.28411 -0.08467,0.08467 -0.08467,0.381 0,0.465666 0.423333,-0.01411 0.987777,-0.02822 1.552221,-0.02822 0.564444,0 0.987777,0.01411 1.41111,0.02822 0.08467,-0.08467 0.08467,-0.380999 0,-0.465666 -0.719666,-0.07055 -0.860777,-0.127 -0.860777,-1.28411 
       v -2.31422 
       c 0,-0.296333 0.127,-0.465667 0.239889,-0.592667 0.536222,-0.52211 1.171221,-0.832554 1.721554,-0.832554 0.282222,0 0.578555,0.183444 0.747889,0.507999 0.141111,0.282222 0.169333,0.663222 0.169333,1.086555 
       v 2.144887 
       c 0,1.15711 -0.141111,1.213555 -0.874888,1.28411 -0.07056,0.08467 -0.07056,0.381 0,0.465666 0.423333,-0.01411 0.874888,-0.02822 1.439332,-0.02822 0.564444,0 1.072443,0.01411 1.495776,0.02822 0.07056,-0.08467 0.07056,-0.380999 0,-0.465666 -0.790221,-0.07055 -0.945443,-0.127 -0.945443,-1.28411 
       v -2.102554 
       c 0,-0.77611 -0.05645,-1.453443 -0.381,-1.890887 -0.239889,-0.310444 -0.677333,-0.479778 -1.171221,-0.479778 -0.691444,0 -1.481666,0.183445 -2.314221,1.142999 
       z 
       m 9.764875,4.346219 
       c 0.0706,-0.05644 0.19756,-0.08467 0.21167,0.01411 0.0423,0.338667 0.15522,0.832555 0.15522,0.832555 0.11289,0.04233 0.18345,0.02822 0.26811,0 0.31045,-0.254 0.80433,-0.465666 1.66511,-0.564444 0.0847,-0.08467 0.0847,-0.296333 0,-0.380999 -0.90311,-0.07056 -1.03011,-0.338667 -1.03011,-1.030111 
       v -6.392328 
       c 0,-0.917222 0.0564,-1.481666 0.0564,-1.481666 0,-0.09878 -0.0564,-0.141111 -0.18345,-0.141111 -0.35278,0.141111 -1.41111,0.338667 -1.97555,0.381 -0.0282,0.112889 0,0.338666 0.0847,0.423333 0.0423,0 0.0847,0 0.127,0 0.62089,0.04233 0.77611,0.04233 0.77611,1.15711 
       v 1.806221 
       c 0,0.09878 -0.0282,0.127 -0.127,0.127 -0.0564,0 -0.63499,-0.239889 -1.10066,-0.239889 -0.931333,0 -1.552222,0.310445 -2.116666,0.846666 -0.606777,0.606778 -0.973666,1.439333 -0.973666,2.483554 0,1.735665 0.874888,3.005664 2.398887,3.005664 0.550335,0 1.072445,-0.282222 1.763885,-0.846666 
       z 
       m 0.15522,-1.044221 
       c 0,0.268111 -0.0282,0.381 -0.22577,0.550333 -0.52211,0.451555 -0.97367,0.677333 -1.32645,0.677333 -0.761996,0 -1.552217,-0.832555 -1.552217,-2.596443 0,-1.015999 0.197555,-1.580443 0.409222,-1.876776 0.437444,-0.663222 1.030115,-0.705555 1.312335,-0.705555 0.508,0 0.86077,0.183444 1.143,0.507999 0.19755,0.225778 0.23988,0.324556 0.23988,0.762 
       z 
       m 11.37356,-7.154328 
       c -0.81844,-0.112889 -0.79022,-0.381 -2.17311,-0.381 -1.42522,0 -2.68111,0.945444 -2.68111,2.441221 0,1.481665 1.22767,2.158998 2.46944,2.638775 0.84667,0.324556 1.89089,0.719667 1.89089,2.102554 0,1.142999 -0.635,1.735666 -1.76389,1.735666 -1.31233,0 -2.159,-0.606778 -2.46944,-2.003777 -0.18344,-0.05644 -0.32455,-0.02822 -0.46567,0.04233 0.0565,1.086554 0.11289,1.453443 0.28223,2.144887 0.889,0 1.28411,0.324555 2.53999,0.324555 0.635,0 1.24178,-0.155222 1.73567,-0.465666 0.81844,-0.508 1.32644,-1.368777 1.32644,-2.271887 0,-1.495777 -1.12888,-2.158998 -2.286,-2.596443 -0.84666,-0.310444 -2.25777,-0.846666 -2.25777,-2.031998 0,-0.790222 0.71966,-1.580443 1.55222,-1.580443 1.36878,0 1.80622,0.874888 2.08844,1.806221 0.15522,0.02822 0.33867,0.01411 0.46567,-0.08467 -0.0564,-0.677333 -0.11289,-1.072444 -0.254,-1.820332 
       z 
       m 4.13456,3.287886 
       c 0.0847,-0.08467 0.0847,-0.380999 0,-0.465666 -0.42333,0.01411 -0.91722,0.02822 -1.42522,0.02822 -0.53622,0 -0.91722,-0.01411 -1.28411,-0.02822 -0.0847,0.08467 -0.0847,0.381 0,0.465666 0.66322,0.07056 0.81845,0.211667 1.11478,0.945444 
       l 1.84855,4.557885 
       c 0.0847,0.197556 0.19756,0.282222 0.33867,0.282222 0.127,0 0.23989,-0.08467 0.33867,-0.310444 
       l 1.42522,-3.47133 1.45344,3.499552 
       c 0.0847,0.197556 0.19756,0.282222 0.33867,0.282222 0.127,0 0.23989,-0.08467 0.32455,-0.296333 
       l 1.84856,-4.473218 
       c 0.22577,-0.578555 0.46566,-0.973666 1.18533,-1.016 0.0847,-0.08467 0.0847,-0.380999 0,-0.465666 -0.28222,0.01411 -0.59267,0.02822 -1.016,0.02822 -0.42333,0 -1.016,-0.01411 -1.43933,-0.02822 -0.0847,0.08467 -0.0847,0.381 0,0.465666 1.05833,0.05645 0.91722,0.465667 0.71966,0.959555 
       l -1.18533,2.935109 
       c -0.14111,0.352778 -0.19755,0.352778 -0.31044,0.05644 
       l -1.21356,-3.09033 
       c -0.26811,-0.663222 -0.23989,-0.804333 0.508,-0.860778 0.0847,-0.08467 0.0847,-0.380999 0,-0.465666 -0.42333,0.01411 -0.98778,0.02822 -1.41111,0.02822 -0.35278,0 -0.81844,-0.01411 -1.24178,-0.02822 -0.0847,0.08467 -0.0847,0.381 0,0.465666 0.66323,0.05645 0.83256,0.465667 1.08656,1.100666 
       l 0.0847,0.225778 -0.98778,2.497665 
       c -0.18345,0.465666 -0.21167,0.479777 -0.39511,0.02822 
       l -1.12889,-2.906887 
       c -0.26811,-0.677333 -0.254,-0.90311 0.42333,-0.945444 
       z 
       m 13.01043,4.303886 
       c -0.52211,0.536222 -0.93133,0.761999 -1.74977,0.761999 -0.508,0 -1.10067,-0.296333 -1.53811,-1.015999 -0.28222,-0.465666 -0.45156,-1.114777 -0.45156,-1.933221 
       l 3.75356,0.02822 
       c 0.16933,0 0.26811,-0.08467 0.26811,-0.239889 0,-1.185332 -0.42334,-2.455331 -2.38478,-2.455331 -1.22766,0 -2.82222,1.171221 -2.82222,3.316108 0,0.790222 0.19756,1.552221 0.66322,2.088443 0.47978,0.564444 1.143,0.90311 2.159,0.90311 1.07244,0 1.83444,-0.493888 2.39889,-1.227665 -0.0423,-0.141111 -0.127,-0.211667 -0.29634,-0.225778 
       z 
       m -3.6971,-2.666998 
       c 0.26811,-1.594554 1.25588,-1.721554 1.59455,-1.721554 0.53622,0 1.17122,0.296333 1.17122,1.481665 0,0.127 -0.0564,0.197556 -0.21166,0.197556 
       z 
       m 8.69244,3.301997 
       c 0.0847,0.437445 0.23989,0.818444 0.94545,0.818444 0.53622,0 1.04422,-0.239888 1.34055,-0.52211 -0.0282,-0.169334 -0.0847,-0.296334 -0.23989,-0.381 -0.0988,0.08467 -0.33866,0.225777 -0.52211,0.225777 -0.40922,0 -0.42333,-0.550332 -0.42333,-1.199443 
       V 51.38744 
       c 0,-2.003776 -1.10067,-2.384776 -2.13078,-2.384776 -1.15711,0 -2.32833,0.762 -2.32833,1.566332 0,0.338667 0.16933,0.508 0.49389,0.508 0.40922,0 0.66322,-0.296333 0.66322,-0.479777 0,-0.09878 -0.0141,-0.197556 -0.0423,-0.254 -0.0141,-0.04233 -0.0282,-0.127 -0.0282,-0.282222 0,-0.437444 0.59266,-0.592666 1.12888,-0.592666 0.47978,0 1.143,0.239888 1.143,1.834443 0,0.09878 -0.0423,0.155222 -0.0847,0.169333 
       l -1.21356,0.296333 
       c -1.35466,0.338666 -2.32833,1.086555 -2.32833,2.046109 0,1.157111 0.79022,1.523999 1.778,1.523999 0.49389,0 0.91722,-0.112889 1.53811,-0.592666 
       l 0.28222,-0.225778 
       z 
       m 0,-2.610553 
       v 1.862665 
       c 0,0.183444 -0.0847,0.282222 -0.19755,0.366889 -0.36689,0.296333 -0.84667,0.620888 -1.24178,0.620888 -0.70555,0 -1.016,-0.564444 -1.016,-1.001888 0,-0.634999 0.29633,-1.28411 1.34056,-1.552221 
       z 
       m 2.92101,-2.765776 
       c -0.19755,0 -0.254,0.169334 -0.254,0.282222 
       v 0.183445 
       c 0,0.07055 0.0141,0.08467 0.0706,0.08467 
       h 0.83255 
       v 4.247441 
       c 0,1.001888 0.43745,1.396999 1.08656,1.396999 0.64911,0 1.35466,-0.310444 1.905,-0.931332 -0.0282,-0.141111 -0.11289,-0.225778 -0.254,-0.239889 -0.36689,0.282222 -0.79023,0.395111 -1.15711,0.395111 -0.381,0 -0.46567,-0.423333 -0.46567,-1.298221 
       v -3.570109 
       h 1.46755 
       c 0.14111,0 0.33867,-0.05644 0.33867,-0.183444 
       v -0.282222 
       c 0,-0.05644 -0.0423,-0.08467 -0.11289,-0.08467 
       h -1.69333 
       v -0.550333 
       c 0,-0.917221 0.0564,-1.481665 0.0564,-1.481665 0,-0.08467 -0.0423,-0.127 -0.11289,-0.127 -0.0564,0 -0.18344,0.05644 -0.31044,0.127 -0.15522,0.08467 -0.29633,0.155222 -0.47978,0.197555 -0.16933,0.05645 -0.31044,0.09878 -0.31044,0.197556 0,0.169333 0.0423,0.07056 0.0423,1.636887 
       z"
        />
</svg>
